# xmcd CD database file
#
# Track frame offsets:
#	150
#	13737
#	27037
#	41767
#	56032
#	68057
#	85750
#	102087
#	120705
#	128622
#	145152
#	159485
#	172825
#	186995
#	200992
#	212475
#	226712
#	241265
#	256665
#	271545
#	286707
#	300230
#
# Disc length: 4209 seconds
#
# Revision: 0
# Processed by: cddbd v1.5.2PL0 Copyright (c) Steve Scherf et al.
# Submitted via: CDex 1.70beta2
#
DISCID=1a106f16
DTITLE=Lester Young - Lester Dreams
DYEAR=1999
DGENRE=Jazz
TTITLE0=Shoe Shine Boy (Cahn-Chaplin)
TTITLE1=Evenin' (Parrish-White)
TTITLE2=Boogie Woogie [I May Be Wrong] (Gimble-Smith)
TTITLE3=Lady, Be Good (I. and G. Gershwin)
TTITLE4=I've Found A New Baby (Palmer-Williams)
TTITLE5=Mortgage Stomp (C. Basie)
TTITLE6=Blues with Helen (Basie-Humes)
TTITLE7=Don't Be That Way (Goodman-Sampson-Parish)
TTITLE8=Song of the Wanderer (N. Moret)
TTITLE9=Allez Oop (C. Basie)
TTITLE10=You Can Depend On Me (Hines-Capenter-Dunlap)
TTITLE11=I Ain't Got Nobody (Williams-Graham)
TTITLE12=Goin' To Chicago (Basie-Rushing)
TTITLE13=[Let Me] Live And Love Tonight (Johnston-Coslow)
TTITLE14=Love Me Or Leave Me (Kahn-Donaldson)
TTITLE15=Dickie's Dream (Basie-Young)
TTITLE16=Lester Leaps In (L. Young)
TTITLE17=Blue Lester (L. Young)
TTITLE18=Jump Lester Jump (L. Young)
TTITLE19=Ghost Of A Chance (Young-Washington-Crosby)
TTITLE20=Indiana (Ballard-Macdonald-Hanley)
TTITLE21=Ad-Lib Blues (ad lib)
EXTD=YEAR: 1999
EXTT0=
EXTT1=
EXTT2=
EXTT3=
EXTT4=
EXTT5=
EXTT6=
EXTT7=
EXTT8=
EXTT9=
EXTT10=
EXTT11=
EXTT12=
EXTT13=
EXTT14=
EXTT15=
EXTT16=
EXTT17=
EXTT18=
EXTT19=
EXTT20=
EXTT21=
PLAYORDER=
